<?xml version="1.0" encoding="UTF-8" standalone="no"?>
<!-- Created with Inkscape (http://www.inkscape.org/) -->
<svg xmlns:rdf="http://www.w3.org/1999/02/22-rdf-syntax-ns#" xmlns="http://www.w3.org/2000/svg" xmlns:cc="http://creativecommons.org/ns#" xmlns:xlink="http://www.w3.org/1999/xlink" xmlns:dc="http://purl.org/dc/elements/1.1/" xmlns:svg="http://www.w3.org/2000/svg" xmlns:inkscape="http://www.inkscape.org/namespaces/inkscape" xmlns:sodipodi="http://sodipodi.sourceforge.net/DTD/sodipodi-0.dtd" xmlns:ns1="http://sozi.baierouge.fr" id="svg3291" viewBox="0 0 800 800" version="1.1" inkscape:version="0.91 r13725">
  <defs id="defs3293">
    <linearGradient id="linearGradient5023">
      <stop id="stop5025" style="stop-color:#d38d5f" offset="0"/>
      <stop id="stop5027" style="stop-color:#d38d5f;stop-opacity:0" offset="1"/>
    </linearGradient>
    <linearGradient id="linearGradient4947" y2="867.29" gradientUnits="userSpaceOnUse" x2="-628.75" gradientTransform="matrix(.91148 0 0 .91148 963.26 96.571)" y1="451.5" x1="-631.28">
      <stop id="stop4941" style="stop-color:#784421" offset="0"/>
      <stop id="stop4943" style="stop-color:#784421;stop-opacity:0" offset="1"/>
    </linearGradient>
    <linearGradient id="linearGradient5029" y2="661.55" xlink:href="#linearGradient5023" gradientUnits="userSpaceOnUse" x2="-625.66" gradientTransform="matrix(.91148 0 0 .91148 963.26 96.571)" y1="222.34" x1="-672.27"/>
    <filter id="filter5041" color-interpolation-filters="sRGB">
      <feGaussianBlur id="feGaussianBlur5043" stdDeviation="9.7842451"/>
    </filter>
    <linearGradient id="linearGradient5051" y2="901.77" xlink:href="#linearGradient5023" gradientUnits="userSpaceOnUse" x2="-634.62" gradientTransform="matrix(.91148 0 0 .91148 963.26 96.571)" y1="337.07" x1="-634.62"/>
  </defs>
  <g id="layer1" transform="translate(0 -252.36)">
    <g id="g5053">
      <path id="path5031" style="filter:url(#filter5041);fill:#2b1100" d="m464.29 244.85c-6.9986 2.0834-2.9588 11.531-7 15.625-5.8762 0.43992-11.834-0.97261-17.75-0.0546-20.389 0.46917-40.985-1.2154-61.25 0.89838-11.384 3.4714-16.617 16.458-14.688 27.594v128.66c-58.91 0.27418-117.87-0.55114-176.75 0.4375-9.2431 2.1862-12.455 12.929-10.844 21.344v90.688c-6.5904-0.0277-14.249-3.1274-20.25-0.3125-3.4671 5.4368 3.8033 9.1501 7.2933 11.878 10.93 7.3814 22.368 17.167 36.582 14.934h163.97v461.03c-6.3664 0-13.692-2.7712-19.594-0.2812-4.0529 5.4444 3.2914 10.062 6.97 12.956 9.9205 6.9041 19.607 15.599 31.749 17.902 34.373 0.2917 68.837 0.5976 103.16-0.171 12.022-2.4082 18.88-15.6 16.688-27.187v-464.25c52.17-0.27308 104.39 0.54965 156.53-0.4375 9.2369-2.2085 12.432-12.894 10.808-21.344-0.35184-35.524 0.73699-71.188-0.55779-106.63-3.2682-9.5457-14.178-12.673-21.125-19-4.2614-2.7271-9.2568-8.8525-14.5-6.8125-4.1802 4.4681 1.2588 10.463 0.5625 15.281-6.2555 0.3926-12.624-0.76871-18.938-0.0312h-112.78c-0.36013-47.02 0.7385-94.128-0.5625-141.09-2.8439-12.189-16.617-16.069-24.469-24.281-4.0924-2.9487-8.3254-6.398-13.25-7.3438z" transform="matrix(.91148 0 0 .91148 18.799 76.963)"/>
      <path id="path4949" style="fill:#2b1100" d="m364.74 309.37c-8.9615 0-16.179 7.2172-16.179 16.179v127.09h-160.9c-5.5864 0-10.083 4.4968-10.083 10.083v92.631l-18.791-1.6123c-5.5659-0.47756 23.288 19.07 28.874 19.07h160.9v426.92l-17.909-1.4399c-7.7109-0.6201 23.287 20.815 30.522 22.431 1.1465 0.256 2.3397 0.3911 3.5655 0.3911h87.815c8.9615 0 16.179-7.2173 16.179-16.179v-432.13h142.45c5.5864 0 10.083-4.4968 10.083-10.083v-100.01c0-3.7691-2.047-7.0423-5.0946-8.7729-1.4694-0.83443-23.25-17.536-22.898-15.753l2.851 14.443h-127.39v-127.09c0-6.2584-3.5199-11.666-8.6957-14.359-2.2355-1.1631-22.531-18.331-23.081-15.685l-2.88 13.91z"/>
      <path id="rect4932" style="fill:#502d16" d="m341.63 293.19c-8.9615 0-16.179 7.2173-16.179 16.179v127.09h-160.9c-5.5864 0-10.083 4.4968-10.083 10.083v100.01c0 5.5864 4.4968 10.083 10.083 10.083h160.9v432.13c0 8.9614 7.2172 16.179 16.179 16.179h87.815c8.9615 0 16.179-7.2173 16.179-16.179v-432.13h142.45c5.5864 0 10.083-4.4968 10.083-10.083v-100.01c0-5.5864-4.4968-10.083-10.083-10.083h-142.45v-127.09c0-8.9615-7.2173-16.179-16.179-16.179h-87.815z"/>
      <path id="path4937" style="fill:url(#linearGradient4947)" d="m341.63 293.19c-8.9615 0-16.179 7.2173-16.179 16.179v127.09h-160.9c-5.5864 0-10.083 4.4968-10.083 10.083v100.01c0 5.5864 4.4968 10.083 10.083 10.083h160.9v432.13c0 8.9614 7.2172 16.179 16.179 16.179h87.815c8.9615 0 16.179-7.2173 16.179-16.179v-432.13h142.45c5.5864 0 10.083-4.4968 10.083-10.083v-100.01c0-5.5864-4.4968-10.083-10.083-10.083h-142.45v-127.09c0-8.9615-7.2173-16.179-16.179-16.179h-87.815z"/>
      <path id="path4951" style="fill:#784421" d="m428.77 302.22c-30.332 1.4663-60.85-1.4381-91.062 1.4812-6.4463 7.0228-1.6272 17.283-2.9053 25.778v116.16c-56.869 0.87832-113.76-0.93157-170.62 0.96845-2.2452 7.7424 1.0676 15.771-0.21224 23.698 0.21653 25.55-1.4438 51.273 0.92434 76.678 8.9239 1.9434 18.049-0.95312 27.116 0.31332h142.7c0.63183 148.24-0.88505 296.59 0.85451 444.77 5.8601 7.0419 16.04 2.6222 23.841 3.3505 24.776-0.3264 49.703 1.9357 74.314-1.3281 6.1526-7.7252 1.1251-18.317 2.5635-27.259v-419.34c50.725-0.9821 101.48 1.0282 152.19-1.0254 2.1676-8.3364-1.1066-16.962 0.17843-25.464-0.14902-24.952 1.4178-50.076-0.919-74.884-8.9239-1.9434-18.049 0.95312-27.116-0.31332h-124.13c-1.6005-47.002 2.2178-94.309-1.9369-141.11-1.512-1.5539-3.6886-2.3745-5.7822-2.4781z"/>
      <path id="path4969" style="fill:#a05a2c" d="m368.21 316.32c-6.4583 0.56646-13.253-0.53602-19.625 0.91148 0.7015 47.356-0.0361 94.718 0.22787 142.08-56.95 1.386-113.92-0.43411-170.87 0.96844 0.59365 24.362-0.9399 48.733 0.057 73.089 56.796-0.33466 113.59 0.0545 170.39-0.0854 1.4882 149.51-1.0836 299.03 1.4242 448.53 20.163-1.3474 40.402-0.22051 60.471 0.34181 4.0938-0.11542 8.2953-0.60043 12.248-1.6236-0.70713-92.988 0.0448-185.98-0.25635-278.97v-167.71c50.792-1.5891 101.62 0.54599 152.42-1.0539-0.57068-24.353 1.0007-48.715-0.057-73.061-50.454 0.33499-100.91-0.055-151.36 0.0854-3.4086-47.634 1.5544-95.623-2.0508-143.24-17.668 0.71924-35.338-0.61291-53.008-0.25636z"/>
      <path id="path5021" style="fill:url(#linearGradient5029)" d="m368.21 316.32c-6.4583 0.56646-13.253-0.53602-19.625 0.91148 0.7015 47.356-0.0361 94.718 0.22787 142.08-56.95 1.386-113.92-0.43411-170.87 0.96844 0.59365 24.362-0.9399 48.733 0.057 73.089 56.796-0.33466 113.59 0.0545 170.39-0.0854 1.4882 149.51-1.0836 299.03 1.4242 448.53 20.163-1.3474 40.402-0.22051 60.471 0.34181 4.0938-0.11542 8.2953-0.60043 12.248-1.6236-0.70713-92.988 0.0448-185.98-0.25635-278.97v-167.71c50.792-1.5891 101.62 0.54599 152.42-1.0539-0.57068-24.353 1.0007-48.715-0.057-73.061-50.454 0.33499-100.91-0.055-151.36 0.0854-3.4086-47.634 1.5544-95.623-2.0508-143.24-17.668 0.71924-35.338-0.61291-53.008-0.25636z"/>
      <path id="path5049" style="fill:url(#linearGradient5051)" d="m368.21 316.32c-6.4583 0.56646-13.253-0.53602-19.625 0.91148 0.7015 47.356-0.0361 94.718 0.22787 142.08-56.95 1.386-113.92-0.43411-170.87 0.96844 0.59365 24.362-0.9399 48.733 0.057 73.089 56.796-0.33466 113.59 0.0545 170.39-0.0854 1.4882 149.51-1.0836 299.03 1.4242 448.53 20.163-1.3474 40.402-0.22051 60.471 0.34181 4.0938-0.11542 8.2953-0.60043 12.248-1.6236-0.70713-92.988 0.0448-185.98-0.25635-278.97v-167.71c50.792-1.5891 101.62 0.54599 152.42-1.0539-0.57068-24.353 1.0007-48.715-0.057-73.061-50.454 0.33499-100.91-0.055-151.36 0.0854-3.4086-47.634 1.5544-95.623-2.0508-143.24-17.668 0.71924-35.338-0.61291-53.008-0.25636z"/>
    </g>
  </g>
  <metadata>
    <rdf:RDF>
      <cc:Work>
        <dc:format>image/svg+xml</dc:format>
        <dc:type rdf:resource="http://purl.org/dc/dcmitype/StillImage"/>
        <cc:license rdf:resource="http://creativecommons.org/licenses/publicdomain/"/>
        <dc:publisher>
          <cc:Agent rdf:about="http://openclipart.org/">
            <dc:title>Openclipart</dc:title>
          </cc:Agent>
        </dc:publisher>
        <dc:title>Brown Cross</dc:title>
        <dc:date>2010-07-28T18:32:10</dc:date>
        <dc:description>Brown cross</dc:description>
        <dc:source>https://openclipart.org/detail/75121/brown-cross-by-inky2010</dc:source>
        <dc:creator>
          <cc:Agent>
            <dc:title>inky2010</dc:title>
          </cc:Agent>
        </dc:creator>
        <dc:subject>
          <rdf:Bag>
            <rdf:li>Church</rdf:li>
            <rdf:li>Cross</rdf:li>
            <rdf:li>Inky2010</rdf:li>
            <rdf:li>brown</rdf:li>
          </rdf:Bag>
        </dc:subject>
      </cc:Work>
      <cc:License rdf:about="http://creativecommons.org/licenses/publicdomain/">
        <cc:permits rdf:resource="http://creativecommons.org/ns#Reproduction"/>
        <cc:permits rdf:resource="http://creativecommons.org/ns#Distribution"/>
        <cc:permits rdf:resource="http://creativecommons.org/ns#DerivativeWorks"/>
      </cc:License>
    </rdf:RDF>
  </metadata>
</svg>
